<?xml version="1.0" encoding="utf-8"?>
<!-- Generator: Adobe Illustrator 21.0.1, SVG Export Plug-In . SVG Version: 6.00 Build 0)  -->
<svg version="1.1" id="Layer_1" xmlns="http://www.w3.org/2000/svg" xmlns:xlink="http://www.w3.org/1999/xlink" x="0px" y="0px"
	 viewBox="0 0 400 139.3" style="enable-background:new 0 0 400 139.3;" xml:space="preserve">
<style type="text/css">
	.st0{fill:#057CB0;}
	.st1{fill:#FFFFFF;}
	.st2{font-family:'ProximaNova-Regular';}
	.st3{font-size:100.7323px;}
	.st4{letter-spacing:-6;}
</style>
<path class="st0" d="M121,127H6c-3.3,0-6-2.7-6-6V6c0-3.3,2.7-6,6-6h115c3.3,0,6,2.7,6,6v115C127,124.3,124.3,127,121,127z"/>
<g>
	<polygon class="st1" points="89,65.2 80.7,56.9 80.7,80.4 89,80.4 	"/>
	<path class="st1" d="M55.7,40.1H76l-8.3-8.3l0,0H57c7-0.6,12.4-6.5,12.4-13.6c0-7.6-6.1-13.7-13.7-13.7v27.4h0L33,9.1
		c-1.2,0.6-2.4,1.3-3.5,2c-1.2,0.8-2.4,1.7-3.6,2.6l21.5,21.5v47.1L64.1,99V87.3L55.7,79V40.1z"/>
	<polygon class="st1" points="64.1,40.2 64,80.4 72.3,80.4 72.4,48.5 	"/>
	<polygon class="st1" points="92.6,56.9 84.3,48.5 72.4,48.5 80.7,56.9 	"/>
	<path class="st1" d="M39.1,74.6v-0.5v0V38.8L20,19.7c-1.8,2.2-3.4,4.6-4.7,7.1l15.5,15.5V54v0L12,35.2c-0.9,3.3-1.4,6.8-1.4,10.4
		C10.6,45.6,38.2,73.6,39.1,74.6"/>
	<polygon class="st1" points="10.7,57.5 10.7,69.2 64.1,122.6 64.1,110.8 	"/>
	<path class="st1" d="M105.7,69.9h-8.3v10.5H89c0,7.6,6.1,13.7,13.7,13.7c7.6,0,13.7-6.1,13.7-13.7L105.7,69.9z"/>
</g>
<text transform="matrix(1 0 0 1 136.9922 111.8813)" class="st0 st2 st3 st4">Stripes</text>
<g>
	<polygon points="163.9,29.6 161.2,34.8 144.1,34.8 155.2,13.5 145.4,13.5 148.1,8.2 165.2,8.2 154.1,29.6 	"/>
	<polygon points="173.8,18.9 182.6,18.9 182.6,24.1 173.8,24.1 173.8,29.6 182.6,29.6 182.6,34.8 167.4,34.8 167.4,8.2 182.6,8.2 
		182.6,13.5 173.8,13.5 	"/>
	<path d="M194.9,8.2c3.4,0,5.3,0.4,6.8,1.3c1.8,1.1,2.9,3.4,2.9,5.9c0,1.9-0.6,3.4-1.8,4.6c-0.8,0.8-1.4,1.2-2.8,1.6
		c1.6,0.4,2.4,0.7,3.2,1.5c1.2,1.1,1.8,2.7,1.8,4.6c0,2.5-1,4.7-2.7,5.8c-1.3,0.9-2.9,1.2-5.6,1.2h-10.9V8.2H194.9z M192.2,19.2h1.6
		c2.9,0,4.2-0.9,4.2-3.1c0-2.2-1.2-3.1-4.3-3.1h-1.5V19.2z M192.2,30.2h2.4c2.7,0,3.9-0.9,3.9-3.1c0-1.3-0.5-2.2-1.4-2.7
		c-0.7-0.4-1.4-0.5-3.3-0.5h-1.5V30.2z"/>
	<path d="M213.9,34.8h-6.5V8.2h8.6c3.5,0,6.1,0.6,7.8,2c1.8,1.4,2.9,3.8,2.9,6.7c0,4.1-1.7,6.7-5.1,8.1l5.9,9.8h-7.7l-5.8-10.3V34.8
		z M216,20.9c2.6,0,4.2-1.4,4.2-3.7c0-2.2-1.6-3.7-3.8-3.7h-2.5v7.4H216z"/>
	<path d="M246.2,34.8h7l-8.7-26.6h-8.2l-8.8,26.6h6.8l1.6-5.2h8.6L246.2,34.8z M237.6,24.4l2.7-8.5l2.7,8.5H237.6z"/>
</g>
</svg>
