<?xml version="1.0" encoding="utf-8"?>
<!-- Generator: Adobe Illustrator 20.1.0, SVG Export Plug-In . SVG Version: 6.00 Build 0)  -->
<svg version="1.1" id="Layer_1" xmlns="http://www.w3.org/2000/svg" xmlns:xlink="http://www.w3.org/1999/xlink" x="0px" y="0px"
	 viewBox="0 0 442.8 117.9" style="enable-background:new 0 0 442.8 117.9;" xml:space="preserve">
<style type="text/css">
	.st0{enable-background:new    ;}
	.st1{fill:#007CB0;}
</style>
<g id="_x36_s37yD.tif">
	<g>
		<path d="M303.4,72.6c-0.7,0.1-1.3,0.2-2,0.2c-3.2,0-6.4-0.1-9.6,0.1c-1.4,0.1-2-0.3-2.5-1.7c-0.6-2.3-1.4-4.6-2.1-6.9
			c-0.3-0.9-0.7-1.2-1.6-1.2c-4.5,0.1-8.9,0.1-13.5,0c-1,0-1.4,0.3-1.6,1.2c-0.7,2.4-1.5,4.8-2.2,7.2c-0.3,1-0.8,1.4-1.8,1.4
			c-8.3-0.1-16.6-0.1-24.9,0c-1.1,0-1.7-0.4-2.2-1.4c-3-5.4-6.1-10.8-9.2-16.2c-0.1-0.2-0.3-0.4-0.6-0.9c-0.1,0.8-0.1,1.2-0.1,1.6
			c0,5,0,10,0,15c0,1.7,0,1.7-1.6,1.7c-3.1,0-6.3,0-9.4,0c-1.2,0-1.5-0.4-1.5-1.6c0-15.7,0-31.4,0-47.1c0-0.4,0.1-0.8,0.1-1.4
			c0.5,0,1.1-0.1,1.6-0.1c6.1,0,12.3-0.1,18.4,0.1c4,0.1,7.9,1,11.1,3.6c3.2,2.5,4.8,6,5.2,10c0.5,5,0.1,9.9-3.4,13.9
			c-1.6,1.7-3.7,3-5.7,4.6c3.3,5.5,6.8,11.3,10.5,17.5c1-2.9,1.8-5.5,2.7-8.1c3.5-10.7,7-21.3,10.5-31.9c0.9-2.8,1.8-5.5,2.7-8.3
			c0.2-0.6,0.3-1.2,1.2-1.2c4.9,0,9.9,0,15,0c1.2,3.8,2.5,7.4,3.7,11.1c1.8,5.7,3.8,11.3,5.6,17.1c2.3,7,4.6,14.1,6.9,21.1
			c0,0.1,0.1,0.1,0.2,0.2C303.4,72.4,303.4,72.5,303.4,72.6z M229.6,46.3c2,0,4,0.2,5.8-0.1c3.4-0.5,5.5-2.9,5.7-6.1
			c0.1-3.7-1.8-6.4-5.3-7c-2-0.3-4-0.2-6.1-0.3C229.6,37.4,229.6,41.8,229.6,46.3z M274.2,52.8c3.3,0,6.3,0,9.6,0
			c-1.6-5-3.1-9.8-4.6-14.6c-0.1,0-0.3,0-0.4,0.1C277.2,43.1,275.7,47.9,274.2,52.8z"/>
		<path d="M0,32.2c0.3-1.9,0.5-3.8,0.8-5.7c0.1-0.3,0.2-0.7,0.4-1.4c5.1,5.1,10,10,15,15c0.1,0,0.3-0.1,0.3-0.1c0-1.2,0-2.3,0-3.5
			c0-1.8,0.4-3.8-0.2-5.3s-2.3-2.6-3.6-3.9c-2.7-2.7-5.4-5.4-8.1-8.1c-0.7-0.6-0.9-1.2-0.3-2c1.1-1.6,2.2-3.3,3.3-5.1
			c1.1,1,2,1.9,2.9,2.7c4.2,4.1,8.3,8.2,12.4,12.4c0.5,0.5,0.8,1.2,0.8,1.8c0.1,9.2,0.1,18.4,0,27.5c0,0.3-0.1,0.6-0.1,1.4
			C15.6,50,7.9,42,0,34.1C0,33.5,0,32.8,0,32.2z"/>
		<path d="M43.2,97c-1-1-1.8-2.1-2.8-3.1c-8.3-8.3-16.5-16.5-24.8-24.8C11.1,64.6,6.5,60,1.8,55.5c-1.2-1.1-1.8-2.3-1.7-4
			c0.1-2.5,0.1-5,0.1-7.8c0.6,0.5,1,0.8,1.3,1.1c14.1,14,28.1,28.1,42.1,42.1c0.4,0.4,0.8,1.2,0.8,1.7c0.1,2.7,0,5.5,0,8.3
			C44.1,97,43.6,97,43.2,97z"/>
		<path d="M44,78.2c-2-2-4-4.2-5.9-6.1c-2.2-2.2-4.3-4.4-6.6-6.5c-0.8-0.8-1.1-1.6-1.1-2.6c0-12,0-23.9,0.1-35.9
			c0-1.2-0.3-2-1.2-2.9C24,19.1,18.9,14,13.6,8.8c-0.3-0.3-0.6-0.7-1.1-1.2C14.4,6.3,16.2,5.1,18,4c0.8-0.5,1.2,0.1,1.7,0.6
			c5,4.9,9.9,9.8,14.9,14.8c0.8,0.8,1.6,1.7,2.5,2.6c0.1-0.1,0.3-0.1,0.3-0.1c0-7.2,0-14.5,0-21.7c4.3-0.9,9.2,2.2,10.9,6.9
			C50,12,49,18.5,42,22c0,0.1,0,0.2,0,0.3c1,0,2,0.1,3.1,0c1.7-0.2,2.9,0.4,4.1,1.7c1.6,1.8,3.4,3.5,5.1,5.2
			c-0.1,0.1-0.1,0.2-0.1,0.3c-2.9,0-5.9,0-9.2,0c0.5,0.6,0.7,1,1,1.2c1.5,1.5,3.1,3,4.5,4.6c0.7,0.7,1.4,1,2.3,1
			c2.5-0.1,4.9-0.1,7.4,0c0.5,0,1.3,0.2,1.7,0.5c2,1.8,3.9,3.8,5.7,5.7c0.1,0.1,0.3,0.4,0.5,0.9c-3.1,0-6.1,0-9,0
			C59,43.5,59,43.6,59,43.7c1.7,1.7,3.3,3.4,5.1,5.1c1,0.9,1.4,1.8,1.3,3.1c-0.1,2.9,0,5.9,0,8.7c0,0.5,0.1,1.1,0.1,1.8
			c2.2,0,4.2,0,6.5,0c0-2.8,0-5.5,0-8.5c2.4,0,4.5-0.1,6.7,0.1c0.4,0,1,0.4,1.3,0.8c2.5,2.4,5,4.8,7.4,7.2c0.4,0.4,0.7,1.2,0.6,1.8
			c-0.5,5.7-5.2,10.1-10.7,10.4c-6.6,0.3-11.3-4.4-12.2-9.7C65,64,65,63.6,64.8,62.9c-2.2,0-4.4,0-6.6,0c-0.1-1-0.1-1.6-0.1-2.3
			c0-5.3,0-10.7,0-16c0-1-0.3-1.8-1-2.5c-1.8-1.8-3.5-3.6-5.2-5.4c-0.1,0.1-0.3,0.1-0.4,0.2c0,8.5,0,16.9,0,25.5c-2.5,0-4.7,0-7.2,0
			c0-10.9,0-21.9,0-32.9c-2.3,0-4.3,0-6.6,0c0,0.5-0.1,1.1-0.1,1.6c0,9.6,0,19.1,0,28.6c0,1,0.3,1.8,1,2.5c1.6,1.6,3.2,3.3,4.9,4.8
			c0.7,0.7,1,1.4,1,2.3c-0.1,2.7,0,5.5,0,8.3C44.3,78.1,44.2,78.2,44,78.2z"/>
		<path d="M176.1,23c0.4-0.1,0.5-0.1,0.7-0.1c7.4,0,14.7-0.1,22.1,0.1c6.9,0.2,11.5,4,12.7,10.2c0.9,4.7,0.2,9.1-3.5,12.5
			c-1,1-2.4,1.6-3.6,2.5c0.2,0.1,0.4,0.2,0.7,0.3c4.4,1.4,6.8,4.6,7.4,9.2c0.5,4.2-0.3,8.3-3.2,11.5c-2.2,2.5-5,3.6-8.2,3.7
			c-5.2,0.1-10.5,0.1-15.6,0.2c-2.5,0-5,0-7.5,0c-1.8,0-1.8,0-1.8-1.8c0-5.2,0-10.5,0-15.6c0-10.2,0-20.4,0-30.5
			C176.1,24.3,176.1,23.7,176.1,23z M188.7,52.6c0,3.8,0,7.4,0,11.1c2.3,0,4.4,0.1,6.6-0.1c3.1-0.3,4.6-2,4.7-5.1
			c0.1-3.1-1.5-5.5-4.4-5.9C193.3,52.4,191,52.6,188.7,52.6z M188.7,32.1c0,3.8,0,7.4,0,11.5c2.5-0.3,4.9-0.3,7.2-0.9
			c2.4-0.6,3.3-2.3,3.3-5.2c0-2.6-1.1-4.1-3.3-4.8C193.4,31.8,191,31.9,188.7,32.1z"/>
		<path d="M141.5,22.8c9.8,0,19.3,0,28.9,0c0,3.2,0,6.4,0,9.8c-5.5,0-10.9,0-16.3,0c0,3.3,0,6.5,0,9.8c0.6,0,1.2,0.1,1.7,0.1
			c4.3,0,8.7,0,13,0c1.8,0,1.8,0,1.8,1.7c0,2.7,0,5.4,0,8.3c-5.5,0-10.9,0-16.4,0c0,3.5,0,6.7,0,10.2c5.4,0,10.8,0,16.3,0
			c0,3.4,0,6.6,0,10c-0.6,0.1-1.2,0.1-1.7,0.1c-8.4,0-16.8,0-25.2,0c-2,0-2,0-2-2c0-15.4,0-30.8,0-46.2
			C141.5,24.1,141.5,23.6,141.5,22.8z"/>
		<path d="M97.5,72.6c7-13.3,13.8-26.5,20.8-40c-6.3,0-12.2,0-18.5,0c1.4-2.6,2.7-4.8,3.7-7.2c1-2.2,2.3-2.8,4.6-2.7
			c9.1,0.2,18.2,0.1,27.2,0.1c0.6,0,1.2,0,2.3,0c-7,13.4-13.9,26.6-20.8,40c6.2,0,12.2,0,18.3,0c-0.2,0.5-0.3,1-0.4,1.3
			c-1.3,2.5-2.7,5.1-4,7.6c-0.4,0.8-0.9,1.2-1.8,1.2c-10,0-20,0-30.1,0C98.5,72.8,98.2,72.8,97.5,72.6z"/>
	</g>
</g>
<g class="st0">
	<path class="st1" d="M106,106.9l3.9-13.1h4l-6.1,17.4h-3.7l-6-17.4h4L106,106.9z"/>
	<path class="st1" d="M119.4,111.3h-3.6V93.8h3.6V111.3z"/>
	<path class="st1" d="M131.8,106.7c0-0.3,0-0.6-0.1-0.8c-0.1-0.2-0.3-0.5-0.5-0.7c-0.3-0.2-0.6-0.4-1-0.6s-1-0.4-1.7-0.6
		c-0.8-0.3-1.5-0.5-2.3-0.9s-1.3-0.7-1.9-1.1s-0.9-0.9-1.3-1.5c-0.3-0.6-0.5-1.2-0.5-2c0-0.7,0.2-1.4,0.5-2c0.3-0.6,0.8-1.1,1.3-1.5
		c0.6-0.4,1.2-0.8,2-1s1.6-0.4,2.6-0.4c1,0,1.8,0.1,2.6,0.4c0.8,0.3,1.5,0.6,2,1.1c0.6,0.5,1,1,1.3,1.7c0.3,0.7,0.5,1.4,0.5,2.2
		h-3.6c0-0.4-0.1-0.7-0.2-1s-0.3-0.6-0.5-0.8s-0.5-0.4-0.9-0.5s-0.8-0.2-1.3-0.2c-0.5,0-0.9,0.1-1.2,0.2c-0.3,0.1-0.6,0.2-0.9,0.4
		c-0.2,0.2-0.4,0.4-0.5,0.6c-0.1,0.2-0.2,0.5-0.2,0.8c0,0.6,0.3,1.1,0.9,1.4s1.4,0.7,2.6,1.1c0.9,0.3,1.8,0.6,2.5,1
		c0.7,0.4,1.3,0.8,1.8,1.2c0.5,0.5,0.8,1,1.1,1.5c0.2,0.6,0.4,1.2,0.4,1.9c0,0.8-0.1,1.4-0.4,2c-0.3,0.6-0.7,1.1-1.3,1.5
		c-0.6,0.4-1.2,0.7-2,0.9s-1.6,0.3-2.6,0.3c-0.6,0-1.1,0-1.7-0.1c-0.6-0.1-1.1-0.3-1.6-0.5c-0.5-0.2-1-0.5-1.5-0.8
		c-0.4-0.3-0.8-0.7-1.2-1.1s-0.6-0.9-0.8-1.4c-0.2-0.5-0.3-1.1-0.3-1.8h3.6c0,0.5,0.1,1,0.3,1.3s0.4,0.7,0.7,0.9s0.7,0.4,1.1,0.5
		c0.4,0.1,0.9,0.2,1.4,0.2c0.5,0,0.9,0,1.2-0.1c0.3-0.1,0.6-0.2,0.8-0.4c0.2-0.2,0.4-0.4,0.5-0.6C131.7,107.2,131.8,107,131.8,106.7
		z"/>
	<path class="st1" d="M141.6,111.3h-3.6V93.8h3.6V111.3z"/>
	<path class="st1" d="M145,111.3V93.8h6.1c1,0,1.9,0.1,2.7,0.3c0.8,0.2,1.5,0.5,2,0.9c0.6,0.4,1,0.9,1.3,1.5
		c0.3,0.6,0.4,1.3,0.4,2.1c0,0.4,0,0.8-0.1,1.1c-0.1,0.4-0.3,0.7-0.5,1c-0.2,0.3-0.5,0.6-0.8,0.9c-0.3,0.3-0.7,0.5-1.1,0.6
		c0.5,0.1,0.9,0.3,1.3,0.6c0.4,0.3,0.7,0.6,0.9,0.9s0.4,0.7,0.5,1.1c0.1,0.4,0.2,0.8,0.2,1.2c0,1.7-0.5,3-1.6,3.8
		c-1.1,0.9-2.6,1.3-4.6,1.3H145z M148.6,101.1h2.7c0.9,0,1.6-0.2,2-0.6s0.7-0.9,0.7-1.6c0-0.8-0.2-1.4-0.7-1.7
		c-0.5-0.3-1.2-0.5-2.2-0.5h-2.5V101.1z M148.6,103.7v4.7h3.1c0.5,0,0.9-0.1,1.2-0.2s0.6-0.3,0.8-0.5c0.2-0.2,0.4-0.4,0.5-0.7
		c0.1-0.3,0.2-0.6,0.2-0.9c0-0.4,0-0.7-0.1-1c-0.1-0.3-0.2-0.6-0.4-0.8c-0.2-0.2-0.5-0.4-0.8-0.5c-0.3-0.1-0.7-0.2-1.2-0.2H148.6z"
		/>
	<path class="st1" d="M164.4,111.3h-3.6V93.8h3.6V111.3z"/>
	<path class="st1" d="M171.3,108.4h7.6v2.9h-11.2V93.8h3.6V108.4z"/>
	<path class="st1" d="M184.8,111.3h-3.6V93.8h3.6V111.3z"/>
	<path class="st1" d="M200.9,96.8h-5.3v14.5H192V96.8h-5.3v-2.9h14.2V96.8z"/>
	<path class="st1" d="M209.2,101.7l3.6-7.9h3.9l-5.7,11.1v6.3h-3.7v-6.3l-5.7-11.1h3.9L209.2,101.7z"/>
	<path class="st1" d="M236.8,96.8h-5.3v14.5h-3.6V96.8h-5.3v-2.9h14.2V96.8z"/>
	<path class="st1" d="M253.1,111.3h-3.6v-7.5h-7v7.5h-3.6V93.8h3.6v7.1h7v-7.1h3.6V111.3z"/>
	<path class="st1" d="M266.3,107.7H260l-1.2,3.6h-3.8l6.5-17.4h3.3l6.5,17.4h-3.8L266.3,107.7z M260.9,104.8h4.4l-2.2-6.5
		L260.9,104.8z"/>
	<path class="st1" d="M284.6,96.8h-5.3v14.5h-3.6V96.8h-5.3v-2.9h14.2V96.8z"/>
	<path class="st1" d="M289.6,94.7c0,0.4-0.1,0.8-0.2,1.2s-0.3,0.8-0.5,1.2c-0.2,0.4-0.4,0.8-0.7,1.1c-0.3,0.3-0.6,0.7-0.9,0.9
		l-1.6-0.9c0.2-0.2,0.3-0.5,0.4-0.7c0.1-0.3,0.2-0.5,0.3-0.8s0.2-0.6,0.2-0.9c0.1-0.3,0.1-0.7,0.1-1v-1.9h2.8V94.7z"/>
	<path class="st1" d="M301.3,106.7c0-0.3,0-0.6-0.1-0.8c-0.1-0.2-0.3-0.5-0.5-0.7s-0.6-0.4-1-0.6s-1-0.4-1.7-0.6
		c-0.8-0.3-1.5-0.5-2.3-0.9c-0.7-0.3-1.3-0.7-1.9-1.1s-1-0.9-1.3-1.5s-0.5-1.2-0.5-2c0-0.7,0.2-1.4,0.5-2c0.3-0.6,0.8-1.1,1.3-1.5
		c0.6-0.4,1.2-0.8,2-1s1.6-0.4,2.6-0.4c1,0,1.8,0.1,2.6,0.4c0.8,0.3,1.5,0.6,2,1.1c0.6,0.5,1,1,1.3,1.7s0.5,1.4,0.5,2.2h-3.6
		c0-0.4-0.1-0.7-0.2-1c-0.1-0.3-0.3-0.6-0.5-0.8s-0.5-0.4-0.9-0.5s-0.8-0.2-1.3-0.2c-0.5,0-0.9,0.1-1.2,0.2
		c-0.3,0.1-0.6,0.2-0.9,0.4c-0.2,0.2-0.4,0.4-0.5,0.6c-0.1,0.2-0.2,0.5-0.2,0.8c0,0.6,0.3,1.1,0.9,1.4c0.6,0.4,1.4,0.7,2.6,1.1
		c0.9,0.3,1.8,0.6,2.5,1c0.7,0.4,1.3,0.8,1.8,1.2c0.5,0.5,0.8,1,1.1,1.5c0.2,0.6,0.4,1.2,0.4,1.9c0,0.8-0.2,1.4-0.4,2
		c-0.3,0.6-0.7,1.1-1.3,1.5c-0.6,0.4-1.2,0.7-2,0.9c-0.8,0.2-1.6,0.3-2.6,0.3c-0.6,0-1.1,0-1.7-0.1s-1.1-0.3-1.6-0.5
		c-0.5-0.2-1-0.5-1.5-0.8c-0.4-0.3-0.8-0.7-1.2-1.1c-0.3-0.4-0.6-0.9-0.8-1.4c-0.2-0.5-0.3-1.1-0.3-1.8h3.6c0,0.5,0.1,1,0.3,1.3
		s0.4,0.7,0.7,0.9s0.7,0.4,1.1,0.5c0.4,0.1,0.9,0.2,1.4,0.2c0.5,0,0.9,0,1.2-0.1c0.3-0.1,0.6-0.2,0.8-0.4s0.4-0.4,0.5-0.6
		C301.2,107.2,301.3,107,301.3,106.7z"/>
	<path class="st1" d="M319.9,106.9l3.9-13.1h4l-6.1,17.4H318l-6-17.4h4L319.9,106.9z"/>
	<path class="st1" d="M333.3,111.3h-3.6V93.8h3.6V111.3z"/>
	<path class="st1" d="M345.6,106.7c0-0.3,0-0.6-0.1-0.8c-0.1-0.2-0.3-0.5-0.5-0.7c-0.2-0.2-0.6-0.4-1-0.6c-0.4-0.2-1-0.4-1.7-0.6
		c-0.8-0.3-1.5-0.5-2.3-0.9s-1.3-0.7-1.9-1.1c-0.5-0.4-0.9-0.9-1.3-1.5c-0.3-0.6-0.5-1.2-0.5-2c0-0.7,0.2-1.4,0.5-2
		c0.3-0.6,0.8-1.1,1.3-1.5s1.2-0.8,2-1c0.8-0.2,1.6-0.4,2.6-0.4c1,0,1.8,0.1,2.6,0.4c0.8,0.3,1.5,0.6,2,1.1c0.6,0.5,1,1,1.3,1.7
		c0.3,0.7,0.5,1.4,0.5,2.2h-3.6c0-0.4-0.1-0.7-0.2-1s-0.3-0.6-0.5-0.8c-0.2-0.2-0.5-0.4-0.9-0.5c-0.4-0.1-0.8-0.2-1.3-0.2
		c-0.5,0-0.9,0.1-1.2,0.2c-0.3,0.1-0.6,0.2-0.9,0.4c-0.2,0.2-0.4,0.4-0.5,0.6c-0.1,0.2-0.2,0.5-0.2,0.8c0,0.6,0.3,1.1,0.9,1.4
		s1.4,0.7,2.6,1.1c0.9,0.3,1.8,0.6,2.5,1c0.7,0.4,1.3,0.8,1.8,1.2c0.5,0.5,0.8,1,1.1,1.5s0.4,1.2,0.4,1.9c0,0.8-0.1,1.4-0.4,2
		c-0.3,0.6-0.7,1.1-1.3,1.5s-1.2,0.7-2,0.9s-1.6,0.3-2.6,0.3c-0.6,0-1.1,0-1.7-0.1s-1.1-0.3-1.6-0.5c-0.5-0.2-1-0.5-1.5-0.8
		c-0.4-0.3-0.8-0.7-1.2-1.1s-0.6-0.9-0.8-1.4c-0.2-0.5-0.3-1.1-0.3-1.8h3.6c0,0.5,0.1,1,0.3,1.3c0.2,0.4,0.4,0.7,0.7,0.9
		c0.3,0.2,0.7,0.4,1.1,0.5c0.4,0.1,0.9,0.2,1.4,0.2c0.5,0,0.9,0,1.2-0.1c0.3-0.1,0.6-0.2,0.8-0.4c0.2-0.2,0.4-0.4,0.5-0.6
		C345.6,107.2,345.6,107,345.6,106.7z"/>
	<path class="st1" d="M355.5,111.3h-3.6V93.8h3.6V111.3z"/>
	<path class="st1" d="M373.1,102.9c0,1.3-0.2,2.5-0.5,3.6c-0.4,1.1-0.9,2-1.5,2.7c-0.7,0.7-1.4,1.3-2.3,1.7c-0.9,0.4-1.9,0.6-3,0.6
		c-1.1,0-2.1-0.2-3-0.6c-0.9-0.4-1.7-1-2.4-1.7c-0.7-0.7-1.2-1.6-1.5-2.7c-0.4-1.1-0.5-2.3-0.5-3.6v-0.8c0-1.3,0.2-2.5,0.5-3.6
		c0.4-1.1,0.9-2,1.5-2.7c0.7-0.7,1.4-1.3,2.3-1.7c0.9-0.4,1.9-0.6,3-0.6c1.1,0,2.1,0.2,3,0.6c0.9,0.4,1.7,1,2.3,1.7s1.2,1.6,1.5,2.7
		c0.4,1.1,0.5,2.3,0.5,3.6V102.9z M369.5,102.2c0-1.8-0.3-3.2-1-4.2c-0.7-1-1.6-1.4-2.8-1.4c-1.2,0-2.1,0.5-2.8,1.4
		c-0.7,0.9-1,2.3-1,4.2v0.8c0,0.9,0.1,1.7,0.3,2.4c0.2,0.7,0.4,1.3,0.7,1.8s0.7,0.8,1.2,1.1s1,0.4,1.6,0.4c1.2,0,2.1-0.5,2.8-1.4
		c0.6-1,1-2.3,1-4.2V102.2z"/>
	<path class="st1" d="M389.9,111.3h-3.6l-7-11.5v11.5h-3.6V93.8h3.6l7,11.5V93.8h3.6V111.3z"/>
	<path class="st1" d="M403.1,107.7h-6.3l-1.2,3.6h-3.8l6.5-17.4h3.3l6.5,17.4h-3.8L403.1,107.7z M397.8,104.8h4.4l-2.2-6.5
		L397.8,104.8z"/>
	<path class="st1" d="M416.2,104.9h-2.9v6.4h-3.6V93.8h6.5c1,0,1.9,0.1,2.7,0.3c0.8,0.2,1.5,0.6,2,1c0.5,0.4,1,1,1.3,1.6
		s0.4,1.4,0.4,2.3c0,0.6-0.1,1.2-0.2,1.7s-0.4,1-0.6,1.4c-0.3,0.4-0.6,0.7-1,1c-0.4,0.3-0.8,0.5-1.3,0.8l3.8,7.1v0.2h-3.9
		L416.2,104.9z M413.3,102h2.9c0.5,0,0.9-0.1,1.2-0.2c0.4-0.1,0.7-0.3,0.9-0.5c0.2-0.2,0.4-0.5,0.5-0.8s0.2-0.7,0.2-1.1
		c0-0.8-0.2-1.5-0.7-1.9s-1.2-0.7-2.1-0.7h-2.9V102z"/>
	<path class="st1" d="M430.8,101.7l3.6-7.9h3.9l-5.7,11.1v6.3H429v-6.3l-5.7-11.1h3.9L430.8,101.7z"/>
	<path class="st1" d="M437.1,109.6c0-0.3,0-0.5,0.1-0.7s0.2-0.4,0.4-0.6c0.2-0.2,0.4-0.3,0.6-0.4s0.5-0.1,0.8-0.1
		c0.3,0,0.6,0,0.8,0.1c0.2,0.1,0.5,0.2,0.6,0.4c0.2,0.2,0.3,0.4,0.4,0.6s0.1,0.5,0.1,0.7c0,0.3,0,0.5-0.1,0.7
		c-0.1,0.2-0.2,0.4-0.4,0.6c-0.2,0.2-0.4,0.3-0.6,0.4c-0.2,0.1-0.5,0.1-0.8,0.1c-0.3,0-0.6,0-0.8-0.1s-0.4-0.2-0.6-0.4
		c-0.2-0.2-0.3-0.4-0.4-0.6C437.2,110.1,437.1,109.8,437.1,109.6z"/>
</g>
</svg>
