<?xml version="1.0" encoding="utf-8"?>
<!-- Generator: Adobe Illustrator 19.2.1, SVG Export Plug-In . SVG Version: 6.00 Build 0)  -->
<svg version="1.1" id="_x32_by2View" xmlns="http://www.w3.org/2000/svg" xmlns:xlink="http://www.w3.org/1999/xlink" x="0px"
	 y="0px" viewBox="0 0 100 100" style="enable-background:new 0 0 100 100;" xml:space="preserve">
<path d="M41.1,90.4c0,5.2,4.2,9.5,9.5,9.5s9.5-4.2,9.5-9.5H41.1z M83.3,70.5V42.8c0-15.5-10.7-28.4-25.2-31.8V7.6
	c0-4.2-3.4-7.6-7.6-7.6S43,3.4,43,7.6V11c-14.5,3.4-25.2,16.4-25.2,31.8v27.7L7.8,80.6v5h85.6v-5L83.3,70.5z M69.6,52.4H55.3v14.3
	h-9.5V52.4H31.5v-9.6h14.3V28.5h9.5v14.3h14.3V52.4z"/>
</svg>
