<?xml version="1.0" encoding="utf-8"?>
<!-- Generator: Adobe Illustrator 19.2.1, SVG Export Plug-In . SVG Version: 6.00 Build 0)  -->
<svg version="1.1" id="_x32_by2View" xmlns="http://www.w3.org/2000/svg" xmlns:xlink="http://www.w3.org/1999/xlink" x="0px"
	 y="0px" viewBox="0 0 100 100" style="enable-background:new 0 0 100 100;" xml:space="preserve">
<path d="M50,0C22.4,0,0,22.4,0,50s22.4,50,50,50s50-22.4,50-50S77.6,0,50,0z M50,90.6C27.6,90.6,9.4,72.4,9.4,50S27.6,9.4,50,9.4
	S90.6,27.6,90.6,50S72.4,90.6,50,90.6z"/>
<path d="M71.9,23.4L51.4,43.9c-0.9-0.2-1.9-0.2-2.8,0L34.4,29.7l-4.7,4.7l14.2,14.2c-0.8,3.4,1.3,6.7,4.7,7.5
	c3.4,0.8,6.7-1.3,7.5-4.7c0.2-0.9,0.2-1.9,0-2.8l20.5-20.5L71.9,23.4z"/>
</svg>
