<?xml version="1.0" encoding="utf-8"?>
<svg version="1.1" xmlns="http://www.w3.org/2000/svg" xmlns:xlink="http://www.w3.org/1999/xlink" x="0px" y="0px"
	 viewBox="0 0 100 100" style="enable-background:new 0 0 100 100;" xml:space="preserve">
<g>
	<g>
		<path d="M100,93.2c-33.5,0-66.7,0-100,0C0,63.8,0,34.4,0,5c33.4,0,66.6,0,100,0C100,34.4,100,63.8,100,93.2z M96.2,8.9
			c-30.9,0-61.6,0-92.3,0c0,1.3,0,2.4,0,3.5c30.8,0,61.5,0,92.3,0C96.2,11.1,96.2,10.1,96.2,8.9z M76.9,74.3c-5.2,0-10.2,0-15.2,0
			c0,5.1,0,10.1,0,15.1c5.1,0,10.1,0,15.2,0C76.9,84.3,76.9,79.4,76.9,74.3z M57.6,16.6c-5.2,0-10.1,0-15.2,0c0,5.1,0,10.1,0,15.1
			c5.1,0,10.1,0,15.2,0C57.6,26.6,57.6,21.7,57.6,16.6z M42.4,89.3c5.2,0,10.2,0,15.2,0c0-5.1,0-10.1,0-15.1c-5.1,0-10.1,0-15.2,0
			C42.4,79.3,42.4,84.2,42.4,89.3z M61.7,70.1c5.1,0,10.1,0,15.2,0c0-5.1,0-10,0-15.1c-5.1,0-10.1,0-15.2,0
			C61.7,60.1,61.7,65.1,61.7,70.1z M57.6,55c-5.2,0-10.2,0-15.2,0c0,5.1,0,10.1,0,15.1c5.2,0,10.1,0,15.2,0
			C57.6,65,57.6,60.1,57.6,55z M57.6,35.8c-5.2,0-10.2,0-15.2,0c0,5.1,0,10,0,15c5.2,0,10.2,0,15.2,0C57.6,45.7,57.6,40.8,57.6,35.8
			z M76.9,51c0-5.2,0-10.1,0-15.2c-5.1,0-10.1,0-15.2,0c0,5.1,0,10.1,0,15.2C66.8,51,71.7,51,76.9,51z M76.9,16.6
			c-5.1,0-10.1,0-15.1,0c0,5.1,0,10.1,0,15.1c5.2,0,10.1,0,15.1,0C76.9,26.5,76.9,21.6,76.9,16.6z M81,50.9c5.3,0,10.2,0,15.1,0
			c0-5.1,0-10.1,0-15c-5.2,0-10.1,0-15.1,0C81,40.9,81,45.9,81,50.9z M19.1,55c-5.2,0-10.2,0-15.2,0c0,5.1,0,10.1,0,15.1
			c5.1,0,10.1,0,15.2,0C19.1,65.1,19.1,60.1,19.1,55z M3.9,50.9c5.2,0,10.2,0,15.1,0c0-5.1,0-10.1,0-15c-5.2,0-10.1,0-15.1,0
			C3.9,40.9,3.9,45.9,3.9,50.9z M80.9,31.6c5.2,0,10.2,0,15.1,0c0-5.1,0-10.1,0-15c-5.1,0-10.1,0-15.1,0
			C80.9,21.7,80.9,26.6,80.9,31.6z M96.1,55C91,55,86.1,55,81,55c0,5.1,0,10,0,15.1c5.1,0,10.1,0,15.1,0
			C96.1,65.1,96.1,60.1,96.1,55z M19,74.3c-5.1,0-10.2,0-15.1,0c0,5.2,0,10.1,0,15c5.2,0,10.1,0,15.1,0C19,84.2,19,79.3,19,74.3z
			 M3.9,16.5c0,5.1,0,10.2,0,15.1c5.1,0,10.1,0,15,0c0-5.2,0-10.1,0-15.1C13.8,16.5,8.9,16.5,3.9,16.5z M81,89.3
			c5.2,0,10.2,0,15.1,0c0-5.1,0-10.1,0-15c-5.1,0-10.1,0-15.1,0C81,79.4,81,84.3,81,89.3z"/>
	</g>
</g>
</svg>
