<?xml version="1.0" encoding="utf-8"?>
<svg version="1.1" id="_x32_by2View" xmlns="http://www.w3.org/2000/svg" xmlns:xlink="http://www.w3.org/1999/xlink" x="0px"
	 y="0px" width="100px" height="100px" viewBox="0 0 100 100" style="enable-background:new 0 0 100 100;" xml:space="preserve">
<path d="M49.9,0.2C22.5,0.2,0.3,22.5,0.3,49.9c0,27.4,22.2,49.7,49.7,49.7c27.4,0,49.7-22.2,49.7-49.7C99.6,22.5,77.4,0.2,49.9,0.2z
	 M65.5,89.4c1.1-4,1.3-7.8-2.2-10.9c-0.4,3.9-3,6-5.8,8c1.2-4.1,0.9-8.1-1.1-11.8c-1.3-2.4-2.9-4.6-4.2-7c-1.1-2-2-4.2-2.7-6.4
	c-0.4-1.2-0.2-2.6-0.3-4c-5.3,3.3-9.3,7.9-11.4,14c-2,6-1.8,12.1,0.2,18.6c-1.4-1-2.5-1.6-3.4-2.5c-3.2-3-6.7-5.8-9.4-9.2
	c-5.1-6.4-5.8-13.5-2.5-21c2.2-5.1,5.6-9.4,9-13.6c4.2-5.1,8.6-10.1,12.6-15.4c2.7-3.5,4.7-7.4,4.1-12c-0.2-1.7-0.9-3.4-1.4-5.2
	c14.9,7.6,28,24.5,16.2,50c4.7-0.7,7.3-4.5,7.8-11.7c5.8,5.3,8.7,11.7,8.6,19.3C79.6,78.6,72.5,85.9,65.5,89.4z"/>
</svg>
