<?xml version="1.0" encoding="utf-8"?>
<svg version="1.1" id="_x32_by2View" xmlns="http://www.w3.org/2000/svg" xmlns:xlink="http://www.w3.org/1999/xlink" x="0px"
	 y="0px" viewBox="0 0 100 100" style="enable-background:new 0 0 100 100;" xml:space="preserve">
<path d="M79.5,35.9c-3.8,3.8-10.1,3.8-14,0L62.6,33c-3.8-3.8-3.8-10.1,0-14l10-10c-7.5-1.9-15.7,0.1-21.5,5.9
	C45,21,43.2,29.7,45.5,37.5L12.8,67.8c-3.8,3.8-3.8,10.1,0,14l4.1,4.1c3.8,3.8,10.1,3.8,14,0l29.9-32.9c7.8,2.4,16.6,0.6,22.8-5.5
	c5.8-5.8,7.7-14,5.9-21.5L79.5,35.9z M25.6,78c-1.6,1.6-4.1,1.6-5.7,0c-1.6-1.6-1.6-4.1,0-5.7s4.1-1.6,5.7,0
	C27.2,73.9,27.2,76.4,25.6,78z"/>
</svg>
