<svg version="1.1" id="Project_based" fill="white" xmlns="http://www.w3.org/2000/svg" viewBox="0 0 512 512">
<path class="st0" d="M510.9,471.6l-88.4-288c-3.8-13.9-16.4-23.6-30.9-23.6H320c26.5-35.3,19.3-85.5-16-112s-85.5-19.3-112,16
	c-21.3,28.4-21.3,67.6,0,96h-71.6c-14.4,0-27.1,9.7-30.9,23.6l-88.4,288c-4.7,17.1,5.4,34.6,22.5,39.3c2.7,0.7,5.6,1.1,8.4,1.1h448
	c17.7,0,32-14.3,32-32C512,477.1,511.6,474.3,510.9,471.6z M224,112c0-17.7,14.3-32,32-32s32,14.3,32,32s-14.3,32-32,32
	S224,129.7,224,112z"/>
</svg>
