<?xml version="1.0" encoding="utf-8"?>
<svg version="1.1" id="rtcube" xmlns="http://www.w3.org/2000/svg" xmlns:xlink="http://www.w3.org/1999/xlink" x="0px" y="0px" xml:space="preserve">
<polygon points="53.3,59.1 53.3,31.1 64.1,31.1 47.7,14.7 31.3,31.1 42.1,31.1 42.1,59.1 23.6,59.1 47.7,83.2 71.8,59.1 "/>
<g>
	<polygon points="3.1,84.2 1,98 94.3,98 92.3,84.2 	"/>
	<polygon points="94.3,98 94.3,98 94.3,98 	"/>
</g>
<polygon points="77,1.6 18.5,1.6 16.4,12.8 79,12.8 "/>
<g>
	<ellipse transform="matrix(0.2344 -0.9721 0.9721 0.2344 -5.1435 32.5838)" cx="18.1" cy="19.6" rx="3.9" ry="3.9"/>
	<circle cx="16.7" cy="30.8" r="4.2"/>
	<circle cx="14.6" cy="43.4" r="4.6"/>
	<circle cx="12.8" cy="57.9" r="5.3"/>
	<circle cx="10.6" cy="75.2" r="5.9"/>
</g>
<g>
	<ellipse transform="matrix(0.9721 -0.2344 0.2344 0.9721 -2.3506 18.6)" cx="77.1" cy="19.2" rx="3.9" ry="3.9"/>
	<circle cx="78.5" cy="30.5" r="4.2"/>
	<circle cx="80.5" cy="43" r="4.6"/>
	<circle cx="82.4" cy="57.5" r="5.3"/>
	<circle cx="84.6" cy="74.8" r="5.9"/>
</g>
</svg>
