<svg version="1.1" id="loading" xmlns="http://www.w3.org/2000/svg" x="0px" y="0px" viewBox="0 0 100 100">
<polygon id="left" points="19.6,21.6 19.6,54.1 48.3,67 48.3,34.5 "/>
<polygon id="right" points="80.4,21.6 80.4,54.1 51.7,67 51.7,34.5 "/>
<polygon id="top" points="21.3,17.6 50.4,31 79.1,18.2 50.4,4 "/>
<path d="M16,91.1c0,0.7-0.5,2.9-0.6,4.5h15.8c-0.1-0.8-0.4-1.7-0.4-2.4c-0.2-4.2,0-8.4,0.5-12.6c0.5-4.4,1.7-8.7,1.1-13.1
	c-0.5-4.2-2.7-7.8-5.6-10.8c-2.9-3-5.3-6.2-7.9-9.4c-1.9-2.5-6.1-4.1-7.2,0.2c-0.9,3.5,3.5,7.5,5.4,10.1c1,1.4,2.1,2.9,3.1,4.3
	c0.5,0.6,3.5,3.6,1.6,3.9c-1,0.2-2.6-3-3.2-3.8c-1.2-1.7-2.5-3.4-3.7-5.1c-2-2.7-4.8-5.2-4.3-8.8c0.1-1-0.1-2.2,0.5-3
	c0.3-0.4,1.5-0.5,1.7-1c0.6-1.3-0.3-4.7-0.4-6.2c-0.4-4.1,2.2-7.7,3.2-11.7c0.8-3.2-0.3-9-4.3-5c-2.8,2.8-4.8,6.3-7,9.5
	c-0.9,1.3-2,2.7-2.5,4.3c-0.6,2.1-0.5,4.4-0.4,6.6c0.1,4.4,0.2,8.7,0.2,13.1c0,2.4-0.3,5.2,0.3,7.5c0.5,1.9,1.8,3.7,3,5.3
	c2.5,3.5,5.5,6.5,7.9,10.1C15.6,81.5,16.2,86.5,16,91.1z"/>
<path d="M69.3,93.1c0,0.7-0.3,1.6-0.4,2.4h15.8c-0.1-1.6-0.6-3.8-0.6-4.5c-0.2-4.6,0.4-9.6,3.1-13.5c2.4-3.6,5.4-6.6,7.9-10.1
	c1.2-1.6,2.5-3.4,3-5.3c0.6-2.3,0.2-5.1,0.3-7.5c0.1-4.4,0.1-8.7,0.2-13.1c0.1-2.2,0.2-4.5-0.4-6.6c-0.5-1.6-1.5-2.9-2.5-4.3
	c-2.2-3.2-4.2-6.7-7-9.5c-4-3.9-5.1,1.8-4.3,5c1,4,3.6,7.5,3.2,11.7c-0.2,1.4-1,4.9-0.4,6.2c0.2,0.5,1.4,0.6,1.7,1
	c0.6,0.8,0.4,2,0.5,3c0.5,3.6-2.3,6.1-4.3,8.8c-1.2,1.7-2.5,3.4-3.7,5.1c-0.6,0.8-2.2,4-3.2,3.8c-1.9-0.4,1.2-3.3,1.6-3.9
	c1-1.4,2.1-2.9,3.1-4.3c1.9-2.6,6.2-6.6,5.4-10.1c-1.1-4.2-5.3-2.6-7.2-0.2c-2.5,3.3-5,6.5-7.9,9.4c-2.9,3-5.1,6.6-5.6,10.8
	c-0.6,4.4,0.6,8.7,1.1,13.1C69.3,84.7,69.6,89,69.3,93.1z"/>
</svg>
