<?xml version="1.0" encoding="utf-8"?>
<!-- Generator: Adobe Illustrator 19.2.1, SVG Export Plug-In . SVG Version: 6.00 Build 0)  -->
<svg version="1.1" id="Layer_1" xmlns="http://www.w3.org/2000/svg" xmlns:xlink="http://www.w3.org/1999/xlink" x="0px" y="0px"
	 viewBox="0 0 576 127" style="enable-background:new 0 0 576 127;" xml:space="preserve">
<style type="text/css">
	.st0{clip-path:url(#SVGID_2_);}
	.st1{clip-path:url(#SVGID_4_);}
	.st2{clip-path:url(#SVGID_6_);fill:#493290;}
	.st3{clip-path:url(#SVGID_8_);}
	.st4{clip-path:url(#SVGID_10_);fill:#F27A21;}
	.st5{clip-path:url(#SVGID_12_);}
	.st6{clip-path:url(#SVGID_14_);fill:#493290;}
	.st7{clip-path:url(#SVGID_16_);}
	.st8{clip-path:url(#SVGID_18_);fill:#493290;}
	.st9{clip-path:url(#SVGID_20_);}
	.st10{clip-path:url(#SVGID_22_);fill:#493290;}
	.st11{clip-path:url(#SVGID_24_);}
	.st12{clip-path:url(#SVGID_26_);fill:#493290;}
	.st13{clip-path:url(#SVGID_28_);}
	.st14{clip-path:url(#SVGID_30_);fill:#493290;}
	.st15{clip-path:url(#SVGID_32_);}
	.st16{clip-path:url(#SVGID_34_);fill:#F27A21;}
	.st17{clip-path:url(#SVGID_36_);}
	.st18{clip-path:url(#SVGID_38_);fill:#493290;}
	.st19{clip-path:url(#SVGID_40_);}
	.st20{clip-path:url(#SVGID_42_);fill:#F27A21;}
	.st21{clip-path:url(#SVGID_44_);}
	.st22{fill:#5B479D;}
</style>
<g>
	<g>
		<defs>
			<rect id="SVGID_1_" width="576" height="127"/>
		</defs>
		<clipPath id="SVGID_2_">
			<use xlink:href="#SVGID_1_"  style="overflow:visible;"/>
		</clipPath>
		<g class="st0">
			<defs>
				<path id="SVGID_3_" d="M73.5,48.9h9.3c0.8,0,1.2-0.2,0.8-1c-0.6-2.1-1.6-3.9-3.3-5.2c-5.6-4.3-14.2-2.3-16.7,5.2
					c-0.4,1,0.2,1,0.8,1H73.5z M142.6,56.4c0-2.7-0.6-5.6-2.1-8.5c-3.1-5.8-11.1-7-15.9-2.5c-4.5,4.3-6.4,14.7-0.8,21.3
					c4.5,5,12.8,4.7,16.5-1C142,63.2,142.6,60.1,142.6,56.4z M162.6,83.2h-15h-3.1c-1.6,0-1.4,0.2-1.4-1.6v-2.7v-0.6
					c-0.4-0.2-0.4,0.2-0.6,0.4c-1.6,2.1-3.5,3.7-5.6,5c-3.9,2.3-8.2,2.7-12.6,2.3c-5.8-0.8-10.9-3.3-15.2-7.4
					c-4.5-4.5-7.2-9.9-8.2-16.3c-0.2-1.4-0.2-1.4-1.6-1.4h-35c-1.6,0-1.6,0-1.4,1.6c1,6.2,7,10.3,13.4,9.1c2.3-0.4,4.5-1.4,5.8-3.5
					c0.6-0.8,1.4-1.2,2.3-1.2h16.1c1.2,0,1.2,0,0.8,1.2C97.2,78,90,84,79.3,85.3c-6.6,1-13,0.4-19.1-2.3c-7.8-3.7-13-9.5-15.4-17.8
					c-1.6-5-1.6-10.3-0.4-15.5c0.2-1,0-1.2-1-1.2H24.1c-1.2,0-1.2,0.8-1.2,1.4v30.8c0,2.1,0,2.1-2.1,2.1H2.5c-1.6,0-1.6,0-1.6-1.6
					V2.3c0-1.6,0-1.6,1.6-1.6H48c1.6,0,1.6,0,1.6,1.6v15.1c0,1.7,0.2,1.6-1.6,1.6H24.9h-1c-0.8,0-1,0.2-1,1v7.6c0,1-0.4,2.1,0.2,2.7
					c0.6,0.8,1.9,0.2,2.9,0.2h20c1.8,0,1.6,0,1.6,1.6v7.6c0,0.2-0.2,0.6,0,0.8c0.4,0.2,0.4-0.2,0.6-0.6c3.9-6,9.5-9.9,16.3-11.4
					c8.6-2.1,17.1-1.6,24.9,2.9c5.6,3.1,9.3,8.1,11.7,14.2c0.2,0.4,0.2,1.2,0.6,1.2c0.6,0,0.4-0.8,0.6-1.2c2.7-7,7-12.4,13.8-15.3
					c7-3.3,14.4-3.5,21.6,0c1.8,0.8,3.3,2.1,4.5,3.5c0.2,0.2,0.4,0.6,0.6,0.4c0.4-0.2,0.2-0.6,0.2-0.8V2.9c0-2.3,0-2.3,2.3-2.3h16.3
					c0.2,0,0.6,0,0.8,0.2v67.5C162.6,73.5,162.6,78.4,162.6,83.2z"/>
			</defs>
			<clipPath id="SVGID_4_">
				<use xlink:href="#SVGID_3_"  style="overflow:visible;"/>
			</clipPath>
			<g class="st1">
				<defs>
					<rect id="SVGID_5_" width="576" height="127"/>
				</defs>
				<clipPath id="SVGID_6_">
					<use xlink:href="#SVGID_5_"  style="overflow:visible;"/>
				</clipPath>
				<rect x="-4.1" y="-4.4" class="st2" width="171.6" height="95.7"/>
			</g>
		</g>
		<g class="st0">
			<defs>
				<path id="SVGID_7_" d="M194.9,64.8h11.7c1.6,0,1.6,0,1.6,1.6v14.7v1.2c0,0.6,0.2,0.4,0.4,0.2c0.2-0.2,0.4-0.4,0.8-0.8
					c2.7-3.1,5.4-6.2,8.2-9.3c4.3-4.8,8.6-9.5,12.8-14.2c0.6-0.8,0.8-1.2,0-1.9c-2.7-3.1-5.4-6.2-8.2-9.1c-4.3-4.8-8.8-9.7-13-14.5
					c-0.2-0.2-0.4-0.6-0.8-0.4c-0.2,0,0,0.6,0,0.8v14.5c0,1.6,0,1.6-1.6,1.6h-23.1c-1.4,0-1.6,0-1.6,1.4v13.2c0,1.4,0,1.4,1.4,1.4
					C187.1,64.8,191,64.8,194.9,64.8z M162.6,83.2V68.8V1.4h5.8H206h1.2c0.8,0,1,0.2,1,1v5.2v10.7c0,1.4,0,1.4-1.4,1.4H184h-1.2
					c-0.6,0-1,0.2-1,0.8v9.9c0,0.6,0.2,1,0.8,0.8h1.4h46.7c1.2,0,2.1,0.2,2.9,1.2c3.1,3.5,6.2,6.8,9.3,10.3c1,1,1,1,1.9,0
					c2.9-3.5,6-6.8,8.9-10.3c0.8-0.8,1.4-1.2,2.5-1.2h20.4h0.6c0.2,0,0.6-0.2,0.8,0.2c0.2,0.4-0.2,0.4-0.4,0.6
					c-0.8,0.8-1.4,1.6-2.1,2.3c-6.4,7.4-13,14.5-19.5,21.9c-0.6,0.6-0.6,1.2,0,1.7c5.4,6,10.7,11.8,16.1,17.8
					c1.9,2.1,3.9,4.3,5.8,6.6c0.2,0.2,0.6,0.4,0.4,0.6c-0.2,0.4-0.6,0.2-0.8,0.2h-18.7c-1.6,0-3.5,0.6-4.9-0.2s-2.3-2.3-3.3-3.5
					c-2.3-2.7-4.7-5.4-7.2-8c-0.8-0.8-0.8-0.8-1.6,0c-3.3,3.7-6.4,7.4-9.7,11.1c-0.4,0.6-1,0.8-1.8,0.8H163H162.6z"/>
			</defs>
			<clipPath id="SVGID_8_">
				<use xlink:href="#SVGID_7_"  style="overflow:visible;"/>
			</clipPath>
			<g class="st3">
				<defs>
					<rect id="SVGID_9_" width="576" height="127"/>
				</defs>
				<clipPath id="SVGID_10_">
					<use xlink:href="#SVGID_9_"  style="overflow:visible;"/>
				</clipPath>
				<rect x="157.6" y="-3.6" class="st4" width="126" height="91.9"/>
			</g>
		</g>
		<g class="st0">
			<defs>
				<path id="SVGID_11_" d="M167.8,118.1v6c0,0.6,0,1-0.6,1.2c-4.1,1.2-8.2,2.1-12.4,1.2c-4.9-1.2-8-4.1-9.9-8.5
					c-2.1-5.2-1.9-10.7,0.2-15.7c3.7-8.9,14.6-8.9,19.1-5.2c1.6,1.2,2.3,2.7,3.1,4.5c0.2,0.6,0,0.8-0.6,0.8h-1.8
					c-0.6,0-0.8-0.2-1-0.8c-1.9-3.7-5.3-5.2-9.5-4.1c-2.7,0.8-4.9,2.3-6,4.8c-2.3,4.8-2.7,9.9-0.6,14.9c2.1,4.8,5.8,7.2,11.3,7
					c1.6,0,3.1-0.4,4.7-0.8c0.8-0.2,1-0.6,1-1.4v-7.8c0-1-0.4-1.2-1.2-1.2h-5.3c-1.2,0-1-0.6-1.2-1.4c0-0.8,0.2-1.2,1.2-1.2h8.4
					c1,0,1.2,0.4,1.2,1.4C167.8,114.2,167.8,116.2,167.8,118.1z"/>
			</defs>
			<clipPath id="SVGID_12_">
				<use xlink:href="#SVGID_11_"  style="overflow:visible;"/>
			</clipPath>
			<g class="st5">
				<defs>
					<rect id="SVGID_13_" width="576" height="127"/>
				</defs>
				<clipPath id="SVGID_14_">
					<use xlink:href="#SVGID_13_"  style="overflow:visible;"/>
				</clipPath>
				<rect x="138.4" y="89.7" class="st6" width="34.5" height="42.2"/>
			</g>
		</g>
		<g class="st0">
			<defs>
				<path id="SVGID_15_" d="M272.5,115.8c0-2.1-0.4-4.7-1.2-6.2c-0.8-1.6-1.8-2.5-3.3-3.1c-3.3-1.2-6.6,0.4-8.2,3.5
					c-0.8,1.6-1,3.3-1,5c0,2.5,0.4,4.8,1.8,7c1.6,2.1,3.7,2.7,6.2,2.5c2.3-0.4,3.9-1.7,4.7-3.9C272.3,119.1,272.3,117.3,272.5,115.8
					z M275.2,110.9v14.2c0,0.8,0,1.4-1,1.4c-1.6,0-1.6,0-1.6-1.4v-0.6c0-0.2,0-0.4-0.2-0.6c-0.4-0.2-0.4,0.2-0.6,0.4
					c-5.1,4.7-12.4,2.9-14.8-3.5c-1.6-4.1-1.4-8.1,0.8-12.2c2.9-5.6,11.3-5.6,14.2-1.9c0.2,0.2,0.2,0.6,0.6,0.4
					c0.4-0.2,0.2-0.4,0.2-0.8v-9.9c0-0.4-0.2-1,0.4-1.2s1.6-0.2,2.1,0c0.4,0.2,0.2,0.8,0.2,1.2v7.2C275,106.1,275,108.4,275.2,110.9
					C275,110.9,275.2,110.9,275.2,110.9z"/>
			</defs>
			<clipPath id="SVGID_16_">
				<use xlink:href="#SVGID_15_"  style="overflow:visible;"/>
			</clipPath>
			<g class="st7">
				<defs>
					<rect id="SVGID_17_" width="576" height="127"/>
				</defs>
				<clipPath id="SVGID_18_">
					<use xlink:href="#SVGID_17_"  style="overflow:visible;"/>
				</clipPath>
				<rect x="251.1" y="90.1" class="st8" width="29.5" height="41.9"/>
			</g>
		</g>
		<g class="st0">
			<defs>
				<path id="SVGID_19_" d="M202.1,115.6c0.2-2.3-0.4-4.5-1.8-6.4c-2.7-4.1-8.9-4.1-11.5,0.4c-2.1,3.9-2.1,8,0,12
					c2.5,4.5,9.1,4.5,11.7,0C201.7,119.7,202.3,117.7,202.1,115.6z M205,115.6c0,1.6-0.2,2.9-0.6,4.3c-1.4,4.3-4.9,7-9.3,7
					s-8.2-2.3-9.5-6.6c-1.4-3.7-1.2-7.4,0.6-10.9c1.9-3.7,5.1-5.4,9.1-5.2c4.1,0.2,7.2,2.1,8.8,6C204.8,111.7,205,113.6,205,115.6z"
					/>
			</defs>
			<clipPath id="SVGID_20_">
				<use xlink:href="#SVGID_19_"  style="overflow:visible;"/>
			</clipPath>
			<g class="st9">
				<defs>
					<rect id="SVGID_21_" width="576" height="127"/>
				</defs>
				<clipPath id="SVGID_22_">
					<use xlink:href="#SVGID_21_"  style="overflow:visible;"/>
				</clipPath>
				<rect x="179.6" y="99.1" class="st10" width="30.3" height="32.7"/>
			</g>
		</g>
		<g class="st0">
			<defs>
				<path id="SVGID_23_" d="M227.6,115.4v9.7c0,1-0.4,1.2-1.4,1.2c-0.8,0-1.6,0.2-1.4-1c0-0.6,0.4-1.2-0.2-1.6c-0.4-0.2-0.8,0.6-1,1
					c-2.7,2.5-7.8,2.9-10.7,0.8c-1.4-1-2.1-2.5-2.5-4.1c-0.2-1-0.4-1.9-0.4-2.9v-12.6c0-1.2,0.6-1.2,1.4-1.2c0.8,0,1.4,0,1.4,1.2
					v11.4c0,1,0,1.9,0.2,2.9c0.6,2.5,1.8,4.1,3.9,4.5c2.9,0.6,5.3-0.6,6.6-2.7c1-1.7,1.4-3.5,1.4-5.4v-10.5c0-0.4-0.2-1.2,0.4-1.4
					c0.6-0.2,1.4-0.2,2.1,0c0.4,0.2,0.2,0.8,0.2,1V115.4z"/>
			</defs>
			<clipPath id="SVGID_24_">
				<use xlink:href="#SVGID_23_"  style="overflow:visible;"/>
			</clipPath>
			<g class="st11">
				<defs>
					<rect id="SVGID_25_" width="576" height="127"/>
				</defs>
				<clipPath id="SVGID_26_">
					<use xlink:href="#SVGID_25_"  style="overflow:visible;"/>
				</clipPath>
				<rect x="205" y="99.6" class="st12" width="27.6" height="32.3"/>
			</g>
		</g>
		<g class="st0">
			<defs>
				<path id="SVGID_27_" d="M233.4,114.6c0-2.5,0-5.8-0.2-9.1c0-0.6,0-1,0.8-1c1.8-0.2,1.8,0,1.9,1.6c0,0.4,0,0.8,0.2,1
					c0.4,0.2,0.6-0.4,0.8-0.6c2.5-2.5,7.4-3.3,10.5-1.6c2.3,1.4,3.1,3.5,3.1,6c0.2,2.7,0,5.2,0,8v6c0,1.6,0,1.6-1.4,1.6
					s-1.4,0-1.4-1.4v-11.4c0-1,0-1.9-0.2-2.9c-0.4-1.9-1.4-3.7-3.7-4.1c-2.5-0.4-4.7-0.2-6.4,2.1c-1.4,1.7-1.8,3.9-1.8,6v10.3
					c0,0.6,0.4,1.2-0.4,1.6c-0.6,0.2-1.4,0.2-1.9,0c-0.6-0.2-0.4-0.8-0.4-1.2C233.4,121.8,233.4,118.5,233.4,114.6z"/>
			</defs>
			<clipPath id="SVGID_28_">
				<use xlink:href="#SVGID_27_"  style="overflow:visible;"/>
			</clipPath>
			<g class="st13">
				<defs>
					<rect id="SVGID_29_" width="576" height="127"/>
				</defs>
				<clipPath id="SVGID_30_">
					<use xlink:href="#SVGID_29_"  style="overflow:visible;"/>
				</clipPath>
				<rect x="228" y="99" class="st14" width="27.6" height="32.8"/>
			</g>
		</g>
		<g class="st0">
			<defs>
				<path id="SVGID_31_" d="M298.4,83.2c4.7,0,8-3.3,8-8c0-4.7-3.3-8.1-7.8-8.1c-4.5,0-8,3.5-8,8.1
					C290.6,79.5,293.9,83.2,298.4,83.2z M298.4,84.8c-4.7,0.4-9.9-3.7-9.9-9.9c0-4.7,3.3-9.7,9.9-9.7s9.9,5,9.9,9.9
					C308.5,80.1,304,85.1,298.4,84.8z"/>
			</defs>
			<clipPath id="SVGID_32_">
				<use xlink:href="#SVGID_31_"  style="overflow:visible;"/>
			</clipPath>
			<g class="st15">
				<defs>
					<rect id="SVGID_33_" width="576" height="127"/>
				</defs>
				<clipPath id="SVGID_34_">
					<use xlink:href="#SVGID_33_"  style="overflow:visible;"/>
				</clipPath>
				<rect x="283.4" y="60.2" class="st16" width="29.8" height="29.6"/>
			</g>
		</g>
		<g class="st0">
			<defs>
				<path id="SVGID_35_" d="M173.5,115.4c0-3.3,0-6.4-0.2-9.7c0-0.8,0-1.2,1-1.2c0.8,0.2,1.8-0.6,1.8,1v0.4c0,0.4-0.2,0.8,0.4,1
					c0.4,0,0.6-0.4,0.8-0.6c1.6-1.6,3.3-2.1,5.4-2.1c1,0,1,0.2,1,1.7c0,1-0.4,0.8-1.2,0.8c-3.1-0.2-5.3,1.4-6,4.5
					c-0.2,1.2-0.4,2.1-0.4,3.3v10.5c0,0.4,0.2,1.2-0.4,1.4c-0.6,0.2-1.4,0.2-1.9,0c-0.6-0.2-0.4-0.8-0.4-1.2
					C173.5,121.8,173.5,118.7,173.5,115.4z"/>
			</defs>
			<clipPath id="SVGID_36_">
				<use xlink:href="#SVGID_35_"  style="overflow:visible;"/>
			</clipPath>
			<g class="st17">
				<defs>
					<rect id="SVGID_37_" width="576" height="127"/>
				</defs>
				<clipPath id="SVGID_38_">
					<use xlink:href="#SVGID_37_"  style="overflow:visible;"/>
				</clipPath>
				<rect x="168.3" y="99.1" class="st18" width="20.3" height="32.3"/>
			</g>
		</g>
		<g class="st0">
			<defs>
				<path id="SVGID_39_" d="M296.4,72.1c0,1.7,0,1.7,1.4,1.7c1.8,0,2.7-0.6,2.7-1.7c0-1-1-1.6-2.9-1.6
					C296.4,70.6,296.4,70.6,296.4,72.1z M294.7,74.9V70c0-0.8,0.2-1,1-1h3.9c1.2,0,2.3,0.4,2.9,1.7c0.4,1.4,0.4,2.7-0.8,3.7
					c-0.6,0.4-0.2,0.6,0,1c1,1.6,0.8,3.5,1.2,5c0.2,0.4-0.4,0.4-0.6,0.4c-0.6,0-1.4,0.2-1.6-0.6c-0.2-1-0.4-1.7-0.4-2.7
					c0-0.4-0.2-0.8-0.4-1.2c-0.8-1-1.8-1-2.7-0.8s-0.4,1.2-0.6,1.6c-0.2,0.8,0,1.6,0,2.3c0,0.6,0.4,1.6-1,1.4c-1.2,0-0.8-1-0.8-1.6
					C294.7,78,294.7,76.4,294.7,74.9z"/>
			</defs>
			<clipPath id="SVGID_40_">
				<use xlink:href="#SVGID_39_"  style="overflow:visible;"/>
			</clipPath>
			<g class="st19">
				<defs>
					<rect id="SVGID_41_" width="576" height="127"/>
				</defs>
				<clipPath id="SVGID_42_">
					<use xlink:href="#SVGID_41_"  style="overflow:visible;"/>
				</clipPath>
				<rect x="289.7" y="64" class="st20" width="18.2" height="21.9"/>
			</g>
		</g>
		<g class="st0">
			<defs>
				<rect id="SVGID_43_" width="576" height="127"/>
			</defs>
			<clipPath id="SVGID_44_">
				<use xlink:href="#SVGID_43_"  style="overflow:visible;"/>
			</clipPath>
			<g class="st21">
				<path class="st22" d="M351.1,19h-8v22h-4.4V19h-7.9v-3.6h20.3V19z"/>
				<path class="st22" d="M362.9,25.9c-0.3,0-0.6-0.1-0.9-0.1s-0.6,0-0.9,0c-1,0-1.9,0.2-2.5,0.6s-1.1,0.9-1.4,1.7v13h-4.3V22h4.1
					l0.1,2.1c0.5-0.8,1.1-1.4,1.8-1.8s1.5-0.7,2.5-0.7c0.2,0,0.5,0,0.8,0.1s0.5,0.1,0.7,0.2L362.9,25.9z"/>
				<path class="st22" d="M376.4,41c-0.1-0.2-0.2-0.5-0.3-0.8s-0.1-0.6-0.2-1c-0.3,0.3-0.6,0.6-0.9,0.8s-0.7,0.5-1.1,0.7
					s-0.9,0.3-1.4,0.5s-1,0.2-1.6,0.2c-0.9,0-1.8-0.1-2.6-0.4s-1.5-0.7-2-1.2s-1-1.1-1.3-1.8s-0.5-1.4-0.5-2.2c0-1,0.2-1.9,0.6-2.7
					s0.9-1.4,1.7-2s1.6-0.9,2.7-1.2s2.3-0.4,3.7-0.4h2.7v-1.2c0-1-0.3-1.8-0.8-2.4s-1.4-0.9-2.5-0.9c-0.5,0-1,0.1-1.4,0.2
					s-0.8,0.3-1,0.5s-0.5,0.5-0.7,0.8s-0.2,0.7-0.2,1h-4.3c0-0.8,0.2-1.5,0.6-2.2s0.9-1.3,1.6-1.9s1.5-1,2.5-1.3s2-0.5,3.2-0.5
					c1.1,0,2.1,0.1,3,0.4s1.7,0.7,2.3,1.2s1.2,1.2,1.5,2s0.5,1.8,0.5,2.9v8.4c0,1.7,0.2,3.1,0.7,4.1V41H376.4z M371.7,37.9
					c0.5,0,1-0.1,1.4-0.2s0.8-0.3,1.2-0.5s0.6-0.5,0.9-0.7s0.5-0.6,0.6-0.8v-3.6h-2.3c-1.6,0-2.8,0.3-3.6,0.8s-1.2,1.3-1.2,2.3
					c0,0.4,0.1,0.7,0.2,1.1s0.3,0.6,0.6,0.9s0.6,0.4,0.9,0.6S371.3,37.9,371.7,37.9z"/>
				<path class="st22" d="M384.6,17c0-0.7,0.2-1.2,0.6-1.6s1-0.7,1.8-0.7s1.4,0.2,1.8,0.7s0.6,1,0.6,1.6c0,0.6-0.2,1.2-0.6,1.6
					s-1,0.6-1.8,0.6s-1.4-0.2-1.8-0.6S384.6,17.7,384.6,17z M389.1,41h-4.3V22h4.3V41z"/>
				<path class="st22" d="M398.3,41H394V14h4.3V41z"/>
				<path class="st22" d="M411.3,41.4c-1.4,0-2.7-0.2-3.8-0.7s-2.1-1.1-2.9-1.9s-1.4-1.8-1.8-2.9s-0.6-2.3-0.6-3.6v-0.7
					c0-1.5,0.2-2.9,0.7-4.1s1.1-2.2,1.8-3.1s1.7-1.5,2.7-2s2.2-0.7,3.4-0.7c1.4,0,2.6,0.2,3.6,0.7s1.9,1.1,2.5,1.9s1.2,1.8,1.5,3
					s0.5,2.4,0.5,3.8v1.8h-12.4c0.1,0.7,0.2,1.4,0.5,2s0.6,1.2,1,1.6s0.9,0.8,1.5,1.1s1.3,0.4,2,0.4c1.1,0,2-0.2,2.8-0.6
					s1.5-1,2-1.7l2.3,2.2c-0.3,0.5-0.7,0.9-1.1,1.3s-1,0.8-1.6,1.1s-1.3,0.6-2,0.8S412.3,41.4,411.3,41.4z M410.8,25.1
					c-1.2,0-2.1,0.4-2.8,1.2s-1.2,2-1.4,3.4h8.1v-0.3c0-0.6-0.1-1.1-0.3-1.6s-0.4-1-0.7-1.4s-0.7-0.7-1.2-1S411.5,25.1,410.8,25.1z"
					/>
				<path class="st22" d="M432.2,25.9c-0.3,0-0.6-0.1-0.9-0.1s-0.6,0-0.9,0c-1,0-1.9,0.2-2.5,0.6s-1.1,0.9-1.4,1.7v13h-4.3V22h4.1
					l0.1,2.1c0.5-0.8,1.1-1.4,1.8-1.8s1.5-0.7,2.5-0.7c0.2,0,0.5,0,0.8,0.1s0.5,0.1,0.7,0.2L432.2,25.9z"/>
				<path class="st22" d="M448.7,37.4h11.6V41h-16.1V15.4h4.4V37.4z"/>
				<path class="st22" d="M462.6,31.3c0-1.4,0.2-2.7,0.6-3.8s1-2.2,1.7-3.1s1.7-1.5,2.8-2s2.3-0.7,3.7-0.7c1.4,0,2.6,0.2,3.7,0.7
					s2,1.2,2.8,2s1.3,1.9,1.7,3.1s0.6,2.5,0.6,3.8v0.4c0,1.4-0.2,2.7-0.6,3.8s-1,2.2-1.7,3.1s-1.7,1.5-2.8,2s-2.3,0.7-3.7,0.7
					c-1.4,0-2.6-0.2-3.7-0.7s-2-1.2-2.8-2s-1.3-1.9-1.7-3.1s-0.6-2.5-0.6-3.8V31.3z M466.8,31.7c0,0.9,0.1,1.7,0.3,2.4
					s0.5,1.4,0.8,2s0.9,1,1.4,1.3s1.3,0.5,2.1,0.5c0.8,0,1.5-0.2,2-0.5s1.1-0.8,1.4-1.3s0.6-1.2,0.8-2s0.3-1.6,0.3-2.4v-0.4
					c0-0.8-0.1-1.6-0.3-2.4s-0.5-1.4-0.8-2s-0.9-1-1.4-1.4s-1.3-0.5-2.1-0.5s-1.5,0.2-2,0.5s-1,0.8-1.4,1.4s-0.7,1.2-0.8,2
					s-0.3,1.6-0.3,2.4V31.7z"/>
				<path class="st22" d="M495.2,41c-0.1-0.2-0.2-0.5-0.3-0.8s-0.1-0.6-0.2-1c-0.3,0.3-0.6,0.6-0.9,0.8s-0.7,0.5-1.1,0.7
					s-0.9,0.3-1.4,0.5s-1,0.2-1.6,0.2c-0.9,0-1.8-0.1-2.6-0.4s-1.5-0.7-2-1.2s-1-1.1-1.3-1.8s-0.5-1.4-0.5-2.2c0-1,0.2-1.9,0.6-2.7
					s0.9-1.4,1.7-2s1.6-0.9,2.7-1.2s2.3-0.4,3.7-0.4h2.7v-1.2c0-1-0.3-1.8-0.8-2.4s-1.4-0.9-2.5-0.9c-0.5,0-1,0.1-1.4,0.2
					s-0.8,0.3-1,0.5s-0.5,0.5-0.7,0.8s-0.2,0.7-0.2,1h-4.3c0-0.8,0.2-1.5,0.6-2.2s0.9-1.3,1.6-1.9s1.5-1,2.5-1.3s2-0.5,3.2-0.5
					c1.1,0,2.1,0.1,3,0.4s1.7,0.7,2.3,1.2s1.2,1.2,1.5,2s0.5,1.8,0.5,2.9v8.4c0,1.7,0.2,3.1,0.7,4.1V41H495.2z M490.5,37.9
					c0.5,0,1-0.1,1.4-0.2s0.8-0.3,1.2-0.5s0.6-0.5,0.9-0.7s0.5-0.6,0.6-0.8v-3.6h-2.3c-1.6,0-2.8,0.3-3.6,0.8s-1.2,1.3-1.2,2.3
					c0,0.4,0.1,0.7,0.2,1.1s0.3,0.6,0.6,0.9s0.6,0.4,0.9,0.6S490,37.9,490.5,37.9z"/>
				<path class="st22" d="M502.5,31.3c0-1.4,0.2-2.8,0.5-4s0.8-2.2,1.5-3.1s1.4-1.5,2.4-2s2-0.7,3.1-0.7c1.1,0,2,0.2,2.8,0.5
					s1.5,0.9,2.1,1.6V14h4.3v27h-3.9l-0.2-2c-0.6,0.7-1.3,1.3-2.2,1.7s-1.8,0.6-2.9,0.6c-1.1,0-2.2-0.2-3.1-0.7s-1.7-1.2-2.3-2
					s-1.1-1.9-1.5-3s-0.5-2.5-0.5-3.8V31.3z M506.8,31.7c0,0.8,0.1,1.6,0.2,2.4s0.4,1.4,0.8,2s0.8,1,1.3,1.3s1.2,0.5,2,0.5
					c1,0,1.7-0.2,2.4-0.6s1.1-1,1.5-1.7v-8.1c-0.4-0.7-0.9-1.3-1.5-1.7s-1.4-0.6-2.3-0.6c-0.8,0-1.4,0.2-2,0.5s-1,0.8-1.3,1.3
					s-0.6,1.2-0.8,2s-0.2,1.6-0.2,2.4V31.7z"/>
			</g>
			<g class="st21">
				<path class="st22" d="M346.9,77H337l-2.1,6h-4.6l9.7-25.6h4l9.7,25.6H349L346.9,77z M338.3,73.5h7.4L342,62.8L338.3,73.5z"/>
				<path class="st22" d="M359.3,64l0.1,2.2c0.7-0.8,1.5-1.4,2.4-1.9c0.9-0.4,2-0.7,3.1-0.7c0.9,0,1.7,0.1,2.5,0.4
					c0.7,0.3,1.4,0.7,1.9,1.2s0.9,1.3,1.2,2.2s0.4,2,0.4,3.3V83h-4.3V70.7c0-0.7-0.1-1.2-0.2-1.7s-0.4-0.8-0.6-1.1s-0.6-0.5-1-0.6
					s-0.9-0.2-1.4-0.2c-0.9,0-1.6,0.2-2.3,0.6s-1.2,1-1.6,1.7V83h-4.3V64H359.3z"/>
				<path class="st22" d="M386.7,83c-0.1-0.2-0.2-0.5-0.3-0.8s-0.1-0.6-0.2-1c-0.3,0.3-0.6,0.6-0.9,0.8s-0.7,0.5-1.1,0.7
					s-0.9,0.3-1.4,0.5s-1,0.2-1.6,0.2c-0.9,0-1.8-0.1-2.6-0.4s-1.5-0.7-2-1.2s-1-1.1-1.3-1.8s-0.5-1.4-0.5-2.2c0-1,0.2-1.9,0.6-2.7
					s0.9-1.4,1.7-2s1.6-0.9,2.7-1.2s2.3-0.4,3.7-0.4h2.7v-1.2c0-1-0.3-1.8-0.8-2.4s-1.4-0.9-2.5-0.9c-0.5,0-1,0.1-1.4,0.2
					s-0.8,0.3-1,0.5s-0.5,0.5-0.7,0.8s-0.2,0.7-0.2,1h-4.3c0-0.8,0.2-1.5,0.6-2.2s0.9-1.3,1.6-1.9s1.5-1,2.5-1.3
					c1-0.3,2-0.5,3.2-0.5c1.1,0,2.1,0.1,3,0.4c0.9,0.3,1.7,0.7,2.3,1.2s1.2,1.2,1.5,2s0.5,1.8,0.5,2.9v8.4c0,1.7,0.2,3.1,0.7,4.1V83
					H386.7z M382,79.9c0.5,0,1-0.1,1.4-0.2s0.8-0.3,1.2-0.5s0.6-0.5,0.9-0.7s0.5-0.6,0.6-0.8v-3.6h-2.3c-1.6,0-2.8,0.3-3.6,0.8
					s-1.2,1.3-1.2,2.3c0,0.4,0.1,0.7,0.2,1.1s0.3,0.6,0.6,0.9s0.6,0.4,0.9,0.6S381.5,79.9,382,79.9z"/>
				<path class="st22" d="M399.4,83h-4.3V56h4.3V83z"/>
				<path class="st22" d="M410.7,76.9l3.9-12.9h4.6l-7.6,21.9c-0.2,0.5-0.4,1-0.7,1.6s-0.7,1.1-1.1,1.6s-1,0.9-1.7,1.2
					s-1.5,0.5-2.4,0.5c-0.4,0-0.7,0-1.1-0.1s-0.7-0.1-1-0.2v-3.3c0.1,0,0.2,0,0.4,0s0.3,0,0.4,0c0.5,0,1,0,1.4-0.1s0.7-0.2,1-0.4
					s0.5-0.5,0.8-0.8s0.4-0.7,0.6-1.2l0.6-1.6L402,64h4.6L410.7,76.9z"/>
				<path class="st22" d="M426.9,59.4V64h3.4v3.2h-3.4v10.6c0,0.4,0,0.8,0.1,1.1s0.2,0.5,0.4,0.6s0.4,0.2,0.6,0.3s0.5,0.1,0.8,0.1
					s0.6,0,0.9-0.1s0.5-0.1,0.6-0.1v3.3c-0.3,0.1-0.7,0.2-1.2,0.3s-1,0.1-1.6,0.1c-0.7,0-1.4-0.1-2-0.3s-1.1-0.5-1.6-0.9
					s-0.8-1-1-1.7s-0.4-1.5-0.4-2.5V67.1h-3.1V64h3.1v-4.6H426.9z"/>
				<path class="st22" d="M433.5,59c0-0.7,0.2-1.2,0.6-1.6s1-0.7,1.8-0.7s1.4,0.2,1.8,0.7s0.6,1,0.6,1.6c0,0.6-0.2,1.2-0.6,1.6
					s-1,0.6-1.8,0.6s-1.4-0.2-1.8-0.6S433.5,59.7,433.5,59z M438.1,83h-4.3V64h4.3V83z"/>
				<path class="st22" d="M450.5,79.9c0.5,0,1-0.1,1.5-0.2s0.8-0.4,1.2-0.7s0.6-0.6,0.8-1s0.3-0.8,0.3-1.3h4c0,0.9-0.3,1.8-0.7,2.6
					s-1,1.5-1.7,2.1s-1.5,1.1-2.4,1.4s-1.9,0.5-3,0.5c-1.5,0-2.7-0.3-3.8-0.8s-2-1.2-2.7-2.1s-1.3-1.9-1.6-3s-0.5-2.4-0.5-3.7v-0.6
					c0-1.3,0.2-2.5,0.5-3.7s0.9-2.2,1.6-3s1.6-1.6,2.7-2.1c1.1-0.5,2.3-0.8,3.8-0.8c1.1,0,2.2,0.2,3.1,0.5c0.9,0.4,1.8,0.8,2.4,1.5
					s1.2,1.4,1.6,2.3s0.6,1.8,0.6,2.9h-4c0-0.5-0.1-1-0.3-1.4s-0.4-0.9-0.8-1.2s-0.7-0.6-1.2-0.8s-1-0.3-1.5-0.3
					c-0.9,0-1.6,0.2-2.1,0.5s-1,0.8-1.3,1.4s-0.6,1.2-0.7,2s-0.2,1.5-0.2,2.2v0.6c0,0.8,0.1,1.5,0.2,2.3s0.3,1.4,0.7,2
					s0.8,1,1.3,1.4S449.6,79.9,450.5,79.9z"/>
				<path class="st22" d="M472.2,77.8c0-0.3,0-0.6-0.1-0.9s-0.3-0.5-0.6-0.7s-0.7-0.4-1.2-0.6s-1.2-0.4-2.1-0.6
					c-1-0.2-1.9-0.5-2.8-0.8s-1.6-0.7-2.2-1.2s-1.1-1-1.4-1.6s-0.5-1.3-0.5-2.1c0-0.8,0.2-1.5,0.5-2.2s0.8-1.3,1.5-1.8
					s1.4-0.9,2.3-1.3c0.9-0.3,1.9-0.5,3-0.5c1.2,0,2.2,0.2,3.2,0.5c0.9,0.3,1.7,0.7,2.4,1.3s1.2,1.2,1.5,1.9s0.5,1.5,0.5,2.4H472
					c0-0.4-0.1-0.7-0.2-1.1s-0.4-0.7-0.6-0.9s-0.6-0.5-1-0.6s-0.9-0.2-1.5-0.2c-0.5,0-1,0.1-1.4,0.2s-0.7,0.3-1,0.5
					s-0.5,0.5-0.6,0.8s-0.2,0.6-0.2,0.9s0.1,0.6,0.2,0.8s0.3,0.5,0.6,0.7s0.7,0.4,1.2,0.6s1.1,0.3,1.9,0.5c1.1,0.2,2.1,0.5,3,0.8
					s1.6,0.7,2.2,1.2s1.1,1,1.4,1.6s0.5,1.4,0.5,2.2c0,0.8-0.2,1.6-0.5,2.3s-0.9,1.3-1.6,1.8s-1.5,0.9-2.4,1.2s-2,0.4-3.2,0.4
					c-1.3,0-2.5-0.2-3.5-0.6s-1.8-0.9-2.5-1.5s-1.2-1.3-1.5-2s-0.5-1.5-0.5-2.3h4.1c0,0.6,0.2,1.1,0.4,1.5s0.5,0.7,0.9,1
					s0.8,0.4,1.2,0.5s0.9,0.2,1.4,0.2c1.1,0,2-0.2,2.6-0.6S472.2,78.5,472.2,77.8z"/>
				<path class="st22" d="M489.2,72.6c0-1.7,0.1-3.3,0.4-4.8s0.6-2.9,1.1-4.1c0.5-1.3,1-2.4,1.6-3.4s1.2-1.9,1.9-2.7s1.3-1.5,2-2
					s1.3-1,1.9-1.3l0.8,2.5c-0.7,0.5-1.3,1.2-2,2.1s-1.3,2-1.8,3.3s-1,2.8-1.3,4.5s-0.5,3.7-0.5,5.9v0.4c0,2.2,0.2,4.2,0.5,5.9
					s0.8,3.2,1.3,4.5s1.2,2.4,1.8,3.3s1.3,1.6,2,2.1l-0.8,2.4c-0.6-0.3-1.2-0.7-1.9-1.3s-1.3-1.2-2-2s-1.3-1.7-1.9-2.7
					s-1.1-2.2-1.6-3.4s-0.8-2.6-1.1-4.1s-0.4-3.1-0.4-4.8V72.6z"/>
				<path class="st22" d="M520.5,61h-8v22h-4.4V61h-7.9v-3.6h20.3V61z"/>
				<path class="st22" d="M528.3,79.4H540V83h-16.1V57.4h4.4V79.4z"/>
				<path class="st22" d="M558,77h-9.9l-2.1,6h-4.6l9.7-25.6h4l9.7,25.6h-4.6L558,77z M549.4,73.5h7.4l-3.7-10.6L549.4,73.5z"/>
				<path class="st22" d="M575.5,72.9c0,1.7-0.1,3.2-0.4,4.7s-0.6,2.8-1.1,4.1s-1,2.4-1.6,3.4s-1.2,1.9-1.9,2.7s-1.3,1.5-2,2
					s-1.3,1-1.9,1.3l-0.8-2.4c0.7-0.5,1.3-1.2,2-2.1s1.3-2,1.8-3.3s1-2.8,1.3-4.6s0.5-3.7,0.5-5.9v-0.4c0-2.2-0.2-4.2-0.5-5.9
					s-0.8-3.3-1.4-4.6s-1.2-2.4-1.9-3.3s-1.3-1.6-1.9-2.1l0.8-2.4c0.6,0.3,1.3,0.7,1.9,1.3s1.3,1.2,2,2s1.3,1.7,1.9,2.8
					s1.1,2.2,1.6,3.4c0.5,1.3,0.8,2.6,1.1,4.1s0.4,3,0.4,4.7V72.9z"/>
			</g>
		</g>
	</g>
</g>
</svg>
